<?xml version="1.0" encoding="utf-8"?>
<!-- Generator: Adobe Illustrator 17.1.0, SVG Export Plug-In . SVG Version: 6.00 Build 0)  -->
<!DOCTYPE svg PUBLIC "-//W3C//DTD SVG 1.1//EN" "http://www.w3.org/Graphics/SVG/1.1/DTD/svg11.dtd">
<svg version="1.1" id="Layer_1" xmlns="http://www.w3.org/2000/svg" xmlns:xlink="http://www.w3.org/1999/xlink" x="0px" y="0px"
	 width="110px" height="27.4px" viewBox="0 0 110 27.4" enable-background="new 0 0 110 27.4" xml:space="preserve">
<g>
	<path fill="#EA2127" d="M45.1,18.6c0,1.1-0.3,2-0.8,2.6c-0.5,0.6-1.3,0.9-2.4,0.9c-1.1,0-1.8-0.3-2.4-0.9c-0.5-0.6-0.8-1.5-0.8-2.6
		V8.5h-6.4v11.1c0,1.4,0.2,2.5,0.7,3.5c0.5,1,1.2,1.8,2.1,2.4c0.9,0.6,1.9,1.1,3,1.4c1.2,0.3,2.4,0.4,3.8,0.4c1.3,0,2.6-0.2,3.7-0.4
		c1.2-0.3,2.2-0.8,3-1.4c0.9-0.6,1.5-1.4,2.1-2.4c0.5-1,0.8-2.2,0.8-3.5V8.5h-6.4V18.6z"/>
	<polygon fill="#EA2127" points="21.3,1.1 16.1,14.9 10.9,1.1 4.6,1.1 0,26.7 6.6,26.7 8.9,12.2 14.5,26.7 17.7,26.7 23.3,12.2 
		25.6,26.7 32.2,26.7 27.7,1.1 	"/>
	<path fill="#EA2127" d="M58.7,8.7c-1.2,0.5-2.3,1.2-3.2,2c-0.9,0.9-1.6,1.9-2.1,3.1c-0.5,1.2-0.8,2.5-0.8,3.9
		c0,1.3,0.3,2.6,0.8,3.8c0.5,1.2,1.2,2.2,2.1,3c0.9,0.9,1.9,1.5,3.1,2c1.2,0.5,2.5,0.7,3.8,0.7c1.5,0,3-0.3,4.5-1v-5.3
		c-0.9,0.7-2.2,1.2-3.4,1.2c-2.5,0-4.5-1.8-4.5-4.5c0-2.6,2-4.5,4.5-4.5c1.2,0,2.4,0.4,3.4,1.2V9c-1.3-0.7-2.8-1-4.3-1
		C61.2,8,59.9,8.2,58.7,8.7z"/>
	<path fill="#EA2127" d="M85.9,10.4c-0.4-0.5-0.9-0.9-1.5-1.3c-0.6-0.3-1.2-0.6-1.9-0.8c-0.7-0.2-1.4-0.3-2.2-0.3
		c-1.5,0-2.7,0.3-3.7,0.9c-0.6,0.3-1.3,1-2.1,1.8V0h-6.4v26.7h6.4v-9.7c0-1.1,0.2-1.9,0.7-2.5c0.7-0.8,1.6-1.2,2.7-1.2
		c0.5,0,1.1,0.1,1.5,0.4c0.5,0.3,0.8,0.6,1,1c0.3,0.5,0.4,1.5,0.4,2.9v9.2h6.4V15.1c0-1.3-0.1-2.2-0.4-2.9
		C86.7,11.5,86.3,10.9,85.9,10.4z"/>
	<path fill="#EA2127" d="M109.2,13.7c-0.5-1.2-1.3-2.2-2.2-3c-0.9-0.9-2.1-1.6-3.4-2.1c-1.3-0.5-2.8-0.8-4.5-0.8
		c-1.6,0-3.1,0.3-4.5,0.8c-1.3,0.5-2.5,1.2-3.4,2.1c-1,0.9-1.7,1.9-2.2,3c-0.5,1.2-0.8,2.4-0.8,3.7c0,1.5,0.3,2.9,0.9,4.1
		c0.6,1.2,1.4,2.3,2.4,3.1c1,0.9,2.2,1.5,3.5,2c1.3,0.5,2.7,0.7,4.1,0.7c1.4,0,2.8-0.2,4.1-0.7c1.3-0.5,2.5-1.1,3.5-2
		c1-0.9,1.8-1.9,2.4-3.1c0.6-1.2,0.9-2.6,0.9-4.1C110,16.1,109.7,14.9,109.2,13.7z M99.1,22.1c-2.4,0-4.4-1.8-4.4-4.5
		c0-2.6,2-4.4,4.4-4.5c2.5,0,4.4,1.8,4.4,4.5C103.5,20.3,101.6,22.1,99.1,22.1z"/>
</g>
<g>
</g>
<g>
</g>
<g>
</g>
<g>
</g>
<g>
</g>
<g>
</g>
</svg>
