<?xml version="1.0" encoding="utf-8"?>
<!-- Generator: Adobe Illustrator 17.1.0, SVG Export Plug-In . SVG Version: 6.00 Build 0)  -->
<!DOCTYPE svg PUBLIC "-//W3C//DTD SVG 1.1//EN" "http://www.w3.org/Graphics/SVG/1.1/DTD/svg11.dtd">
<svg version="1.1" id="Layer_1" xmlns="http://www.w3.org/2000/svg" xmlns:xlink="http://www.w3.org/1999/xlink" x="0px" y="0px"
	 viewBox="0 0 15.7 15.7" enable-background="new 0 0 15.7 15.7" xml:space="preserve">
<g>
	<path fill="#C3C3C3" d="M6.5,7c0.2-0.1,0.3-0.3,0.3-0.5c0-0.3-0.1-0.5-0.3-0.6C6.2,5.9,5.9,5.8,5.6,5.8H4.5v1.4h1.3
		C6.1,7.2,6.3,7.2,6.5,7"/>
	<path fill="#C3C3C3" d="M7.9,0C3.5,0,0,3.5,0,7.9c0,4.3,3.5,7.9,7.9,7.9c4.3,0,7.9-3.5,7.9-7.9C15.7,3.5,12.2,0,7.9,0 M9.6,5H12
		v0.6H9.6V5z M7.9,10.1c-0.1,0.2-0.3,0.4-0.4,0.5c-0.2,0.2-0.4,0.3-0.7,0.3C6.5,10.9,6.2,11,5.8,11H3.1V4.8h3c0.8,0,1.3,0.2,1.6,0.7
		C7.8,5.7,7.9,6,7.9,6.4c0,0.4-0.1,0.7-0.3,0.9C7.5,7.4,7.4,7.5,7.2,7.6c0.3,0.1,0.6,0.3,0.7,0.5c0.2,0.3,0.2,0.6,0.2,0.9
		C8.1,9.5,8,9.8,7.9,10.1 M13,8.9H9.8c0,0.4,0.2,0.8,0.5,0.9c0.2,0.1,0.4,0.2,0.6,0.2c0.3,0,0.5-0.1,0.6-0.2
		c0.1-0.1,0.2-0.2,0.2-0.3h1.2c0,0.3-0.2,0.5-0.4,0.8c-0.4,0.4-1,0.6-1.7,0.6c-0.6,0-1.1-0.2-1.6-0.5c-0.4-0.4-0.7-1-0.7-1.8
		c0-0.8,0.2-1.4,0.6-1.8c0.4-0.4,0.9-0.6,1.6-0.6c0.4,0,0.7,0.1,1,0.2c0.3,0.1,0.6,0.4,0.8,0.7C12.8,7.3,12.9,7.6,13,8
		C13,8.2,13,8.5,13,8.9"/>
	<path fill="#C3C3C3" d="M10.8,7.2c-0.3,0-0.5,0.1-0.7,0.3C10,7.6,9.8,7.8,9.8,8.1h2c0-0.3-0.1-0.5-0.3-0.7
		C11.3,7.2,11.1,7.2,10.8,7.2"/>
	<path fill="#C3C3C3" d="M6.4,8.3C6.3,8.3,6.1,8.2,5.8,8.2H4.5v1.6h1.3c0.3,0,0.5,0,0.6-0.1C6.7,9.6,6.8,9.4,6.8,9
		C6.8,8.7,6.7,8.5,6.4,8.3"/>
</g>
</svg>
