<?xml version="1.0" encoding="utf-8"?>
<!-- Generator: Adobe Illustrator 17.1.0, SVG Export Plug-In . SVG Version: 6.00 Build 0)  -->
<!DOCTYPE svg PUBLIC "-//W3C//DTD SVG 1.1//EN" "http://www.w3.org/Graphics/SVG/1.1/DTD/svg11.dtd">
<svg version="1.1" id="Layer_1" xmlns="http://www.w3.org/2000/svg" xmlns:xlink="http://www.w3.org/1999/xlink" x="0px" y="0px"
	 viewBox="0 0 14.3 14.3" enable-background="new 0 0 14.3 14.3" xml:space="preserve">
<path fill="#C3C3C3" d="M13.5,0H0.8C0.4,0,0,0.4,0,0.8v12.7c0,0.4,0.4,0.8,0.8,0.8h6.8V8.8H5.8V6.6h1.9V5c0-1.8,1.1-2.9,2.8-2.9
	c0.8,0,1.5,0.1,1.7,0.1v1.9l-1.1,0c-0.9,0-1.1,0.4-1.1,1v1.4H12l-0.3,2.2H9.9v5.5h3.6c0.4,0,0.8-0.4,0.8-0.8V0.8
	C14.3,0.4,13.9,0,13.5,0"/>
</svg>
