<?xml version="1.0" encoding="utf-8"?>
<!-- Generator: Adobe Illustrator 17.1.0, SVG Export Plug-In . SVG Version: 6.00 Build 0)  -->
<!DOCTYPE svg PUBLIC "-//W3C//DTD SVG 1.1//EN" "http://www.w3.org/Graphics/SVG/1.1/DTD/svg11.dtd">
<svg version="1.1" id="Layer_1" xmlns="http://www.w3.org/2000/svg" xmlns:xlink="http://www.w3.org/1999/xlink" x="0px" y="0px"
	 viewBox="0 0 14.2 14.2" enable-background="new 0 0 14.2 14.2" xml:space="preserve">
<g>
	<path fill="#C3C3C3" d="M7.1,1.3c1.9,0,2.1,0,2.9,0c0.7,0,1.1,0.1,1.3,0.2c0.3,0.1,0.6,0.3,0.8,0.5c0.2,0.2,0.4,0.5,0.5,0.8
		c0.1,0.3,0.2,0.6,0.2,1.3c0,0.8,0,1,0,2.9s0,2.1,0,2.9c0,0.7-0.1,1.1-0.2,1.3c-0.2,0.6-0.7,1.1-1.4,1.4c-0.3,0.1-0.6,0.2-1.3,0.2
		c-0.8,0-1,0-2.9,0c-1.9,0-2.1,0-2.9,0c-0.7,0-1.1-0.1-1.3-0.2c-0.3-0.1-0.6-0.3-0.8-0.5c-0.2-0.2-0.4-0.5-0.5-0.8
		c-0.1-0.3-0.2-0.6-0.2-1.3c0-0.8,0-1,0-2.9s0-2.1,0-2.9c0-0.7,0.1-1.1,0.2-1.3c0.1-0.3,0.3-0.6,0.5-0.8c0.2-0.2,0.5-0.4,0.8-0.5
		c0.3-0.1,0.6-0.2,1.3-0.2C5,1.3,5.2,1.3,7.1,1.3 M7.1,0C5.2,0,4.9,0,4.2,0c-0.8,0-1.3,0.2-1.7,0.3C2,0.6,1.6,0.8,1.2,1.2
		C0.8,1.6,0.6,2,0.4,2.5C0.2,2.9,0.1,3.4,0,4.2c0,0.8,0,1,0,2.9c0,1.9,0,2.2,0,2.9c0,0.8,0.2,1.3,0.3,1.7c0.2,0.5,0.5,0.9,0.8,1.3
		c0.4,0.4,0.8,0.6,1.3,0.8c0.5,0.2,1,0.3,1.7,0.3c0.8,0,1,0,2.9,0c1.9,0,2.2,0,2.9,0c0.8,0,1.3-0.2,1.7-0.3c1-0.4,1.7-1.1,2.1-2.1
		c0.2-0.5,0.3-1,0.3-1.7c0-0.8,0-1,0-2.9c0-1.9,0-2.2,0-2.9c0-0.8-0.2-1.3-0.3-1.7C13.7,2,13.4,1.6,13,1.2c-0.4-0.4-0.8-0.6-1.3-0.8
		c-0.5-0.2-1-0.3-1.7-0.3C9.3,0,9.1,0,7.1,0"/>
	<path fill="#C3C3C3" d="M7.1,3.5c-2,0-3.7,1.6-3.7,3.7s1.6,3.7,3.7,3.7c2,0,3.7-1.6,3.7-3.7S9.1,3.5,7.1,3.5 M7.1,9.5
		c-1.3,0-2.4-1.1-2.4-2.4c0-1.3,1.1-2.4,2.4-2.4c1.3,0,2.4,1.1,2.4,2.4C9.5,8.4,8.4,9.5,7.1,9.5"/>
	<path fill="#C3C3C3" d="M10.9,2.5c0.5,0,0.9,0.4,0.9,0.9s-0.4,0.9-0.9,0.9c-0.5,0-0.9-0.4-0.9-0.9S10.5,2.5,10.9,2.5"/>
</g>
</svg>
