<?xml version="1.0" encoding="utf-8"?>
<!-- Generator: Adobe Illustrator 17.1.0, SVG Export Plug-In . SVG Version: 6.00 Build 0)  -->
<!DOCTYPE svg PUBLIC "-//W3C//DTD SVG 1.1//EN" "http://www.w3.org/Graphics/SVG/1.1/DTD/svg11.dtd">
<svg version="1.1" id="Layer_1" xmlns="http://www.w3.org/2000/svg" xmlns:xlink="http://www.w3.org/1999/xlink" x="0px" y="0px"
	 viewBox="0 0 14.6 14.6" enable-background="new 0 0 14.6 14.6" xml:space="preserve">
<path fill="#C3C3C3" d="M2.3,12.2h2.2V5.6H2.3V12.2z M4.6,3.6c0-0.3-0.1-0.6-0.3-0.8C4,2.6,3.7,2.4,3.4,2.4C3,2.4,2.7,2.6,2.5,2.8
	S2.1,3.3,2.1,3.6c0,0.3,0.1,0.6,0.3,0.8C2.7,4.6,3,4.7,3.3,4.7h0c0.4,0,0.7-0.1,0.9-0.3C4.5,4.2,4.6,3.9,4.6,3.6 M10.1,12.2h2.2V8.4
	c0-1-0.2-1.7-0.7-2.2c-0.5-0.5-1.1-0.8-1.8-0.8c-0.9,0-1.5,0.4-2,1.1h0v-1H5.6c0,0.4,0,2.6,0,6.6h2.2V8.5c0-0.2,0-0.4,0.1-0.5
	C8,7.8,8.1,7.6,8.3,7.4C8.5,7.3,8.8,7.2,9,7.2c0.7,0,1.1,0.5,1.1,1.5V12.2z M14.6,2.7v9.1c0,0.8-0.3,1.4-0.8,1.9
	c-0.5,0.5-1.2,0.8-1.9,0.8H2.7c-0.8,0-1.4-0.3-1.9-0.8S0,12.6,0,11.8V2.7C0,2,0.3,1.3,0.8,0.8C1.3,0.3,2,0,2.7,0h9.1
	c0.8,0,1.4,0.3,1.9,0.8C14.3,1.3,14.6,2,14.6,2.7"/>
</svg>
