<?xml version="1.0" encoding="UTF-8" standalone="no"?>
<!DOCTYPE svg PUBLIC "-//W3C//DTD SVG 1.1//EN"
 "http://www.w3.org/Graphics/SVG/1.1/DTD/svg11.dtd">
<!-- Generated by graphviz version 2.40.1 (20161225.0304)
 -->
<!-- Title: G Pages: 1 -->
<svg width="450pt" height="388pt"
 viewBox="0.00 0.00 450.01 388.00" xmlns="http://www.w3.org/2000/svg" xmlns:xlink="http://www.w3.org/1999/xlink">
<g id="graph0" class="graph" transform="scale(1 1) rotate(0) translate(4 384)">
<title>G</title>
<polygon fill="#ffffff" stroke="transparent" points="-4,4 -4,-384 446.012,-384 446.012,4 -4,4"/>
<!-- A0 -->
<g id="node1" class="node">
<title>A0</title>
<polygon fill="#fff8dc" stroke="#000000" points="119.5012,-380 20.5128,-380 20.5128,-344 125.5012,-344 125.5012,-374 119.5012,-380"/>
<polyline fill="none" stroke="#000000" points="119.5012,-380 119.5012,-374 "/>
<polyline fill="none" stroke="#000000" points="125.5012,-374 119.5012,-374 "/>
<text text-anchor="middle" x="73.007" y="-359" font-family="Helvetica,sans-Serif" font-size="10.00" fill="#000000">&#45;&gt; is&#45;a | &#45;&#45;&gt; has&#45;a</text>
</g>
<!-- A1 -->
<g id="node2" class="node">
<title>A1</title>
<polygon fill="none" stroke="#000000" points="222.6886,-380 143.3254,-380 143.3254,-344 222.6886,-344 222.6886,-380"/>
<text text-anchor="middle" x="183.007" y="-359" font-family="Helvetica,sans-Serif" font-size="10.00" fill="#000000">Component</text>
</g>
<!-- A2 -->
<g id="node3" class="node">
<title>A2</title>
<polygon fill="none" stroke="#000000" points="58.021,-294 -.007,-294 -.007,-258 58.021,-258 58.021,-294"/>
<text text-anchor="middle" x="29.007" y="-273" font-family="Helvetica,sans-Serif" font-size="10.00" fill="#000000">Landin</text>
</g>
<!-- A1&#45;&gt;A2 -->
<g id="edge1" class="edge">
<title>A1&#45;&gt;A2</title>
<path fill="none" stroke="#000000" d="M141.7165,-338.9417C115.3249,-324.2035 81.7444,-305.4508 58.1274,-292.262"/>
<polygon fill="#000000" stroke="#000000" points="150.7236,-343.9716 139.7986,-343.0248 146.3581,-341.5337 141.9927,-339.0959 141.9927,-339.0959 141.9927,-339.0959 146.3581,-341.5337 144.1868,-335.167 150.7236,-343.9716 150.7236,-343.9716"/>
</g>
<!-- A3 -->
<g id="node4" class="node">
<title>A3</title>
<polygon fill="none" stroke="#000000" points="325.8497,-294 244.1643,-294 244.1643,-258 325.8497,-258 325.8497,-294"/>
<text text-anchor="middle" x="285.007" y="-273" font-family="Helvetica,sans-Serif" font-size="10.00" fill="#000000">SubmitBack</text>
</g>
<!-- A1&#45;&gt;A3 -->
<g id="edge2" class="edge">
<title>A1&#45;&gt;A3</title>
<path fill="none" stroke="#000000" d="M212.3092,-337.2942C228.6068,-323.5531 248.5381,-306.7483 263.4066,-294.2121"/>
<polygon fill="#000000" stroke="#000000" points="204.6386,-343.7616 209.3831,-333.8752 208.4612,-340.5386 212.2838,-337.3156 212.2838,-337.3156 212.2838,-337.3156 208.4612,-340.5386 215.1845,-340.756 204.6386,-343.7616 204.6386,-343.7616"/>
</g>
<!-- A5 -->
<g id="node6" class="node">
<title>A5</title>
<polygon fill="none" stroke="#000000" points="442.017,-294 343.997,-294 343.997,-258 442.017,-258 442.017,-294"/>
<text text-anchor="middle" x="393.007" y="-273" font-family="Helvetica,sans-Serif" font-size="10.00" fill="#000000">RegisterSucces</text>
</g>
<!-- A1&#45;&gt;A5 -->
<g id="edge4" class="edge">
<title>A1&#45;&gt;A5</title>
<path fill="none" stroke="#000000" d="M232.6169,-341.6836C267.8812,-327.242 314.8245,-308.0176 348.8061,-294.1013"/>
<polygon fill="#000000" stroke="#000000" points="223.0007,-345.6216 230.5493,-337.6675 227.6277,-343.7267 232.2548,-341.8318 232.2548,-341.8318 232.2548,-341.8318 227.6277,-343.7267 233.9602,-345.9961 223.0007,-345.6216 223.0007,-345.6216"/>
</g>
<!-- A7 -->
<g id="node8" class="node">
<title>A7</title>
<polygon fill="none" stroke="#000000" points="187.5504,-294 114.4636,-294 114.4636,-258 187.5504,-258 187.5504,-294"/>
<text text-anchor="middle" x="151.007" y="-273" font-family="Helvetica,sans-Serif" font-size="10.00" fill="#000000">Home (W)</text>
</g>
<!-- A1&#45;&gt;A7 -->
<g id="edge6" class="edge">
<title>A1&#45;&gt;A7</title>
<path fill="none" stroke="#000000" d="M172.6815,-334.2503C167.8,-321.1313 162.109,-305.8366 157.7836,-294.2121"/>
<polygon fill="#000000" stroke="#000000" points="176.2206,-343.7616 168.5157,-335.9587 174.4769,-339.0755 172.7332,-334.3894 172.7332,-334.3894 172.7332,-334.3894 174.4769,-339.0755 176.9507,-332.8201 176.2206,-343.7616 176.2206,-343.7616"/>
</g>
<!-- A8 -->
<g id="node9" class="node">
<title>A8</title>
<polygon fill="none" stroke="#000000" points="233.9111,-122 162.1029,-122 162.1029,-86 233.9111,-86 233.9111,-122"/>
<text text-anchor="middle" x="198.007" y="-101" font-family="Helvetica,sans-Serif" font-size="10.00" fill="#000000">Feedback</text>
</g>
<!-- A1&#45;&gt;A8 -->
<g id="edge7" class="edge">
<title>A1&#45;&gt;A8</title>
<path fill="none" stroke="#000000" d="M143.343,-338.0685C128.415,-326.7553 113.1032,-311.7991 105.007,-294 98.3823,-279.4359 100.714,-273.4133 105.007,-258 120.0914,-203.8418 159.9411,-149.7083 182.2725,-122.3398"/>
<polygon fill="#000000" stroke="#000000" points="151.5486,-343.9736 140.8034,-341.7849 147.4903,-341.053 143.4319,-338.1324 143.4319,-338.1324 143.4319,-338.1324 147.4903,-341.053 146.0605,-334.4799 151.5486,-343.9736 151.5486,-343.9736"/>
</g>
<!-- A9 -->
<g id="node10" class="node">
<title>A9</title>
<polygon fill="none" stroke="#000000" points="230.6829,-208 171.3311,-208 171.3311,-172 230.6829,-172 230.6829,-208"/>
<text text-anchor="middle" x="201.007" y="-187" font-family="Helvetica,sans-Serif" font-size="10.00" fill="#000000">Search</text>
</g>
<!-- A1&#45;&gt;A9 -->
<g id="edge10" class="edge">
<title>A1&#45;&gt;A9</title>
<path fill="none" stroke="#000000" d="M187.5687,-343.9506C190.8058,-330.3232 194.9309,-311.1105 197.007,-294 200.1021,-268.4911 200.9928,-239.2295 201.1732,-218.2564"/>
<polygon fill="#000000" stroke="#000000" points="201.2107,-208.1081 205.6736,-218.1247 201.1922,-213.1081 201.1736,-218.1081 201.1736,-218.1081 201.1736,-218.1081 201.1922,-213.1081 196.6737,-218.0914 201.2107,-208.1081 201.2107,-208.1081"/>
</g>
<!-- A4 -->
<g id="node5" class="node">
<title>A4</title>
<polygon fill="none" stroke="#000000" points="242.7304,-36 177.2836,-36 177.2836,0 242.7304,0 242.7304,-36"/>
<text text-anchor="middle" x="210.007" y="-15" font-family="Helvetica,sans-Serif" font-size="10.00" fill="#000000">Register</text>
</g>
<!-- A3&#45;&gt;A4 -->
<g id="edge3" class="edge">
<title>A3&#45;&gt;A4</title>
<path fill="none" stroke="#000000" d="M280.8602,-247.5818C274.8864,-209.9276 262.3982,-141.7592 243.007,-86 236.9295,-68.5242 227.5359,-49.6706 220.3227,-36.2584"/>
<polygon fill="#000000" stroke="#000000" points="282.4393,-257.7994 276.4647,-248.604 281.6756,-252.858 280.9119,-247.9167 280.9119,-247.9167 280.9119,-247.9167 281.6756,-252.858 285.3591,-247.2294 282.4393,-257.7994 282.4393,-257.7994"/>
</g>
<!-- A6 -->
<g id="node7" class="node">
<title>A6</title>
<polygon fill="none" stroke="#000000" points="321.007,-36 267.007,-36 267.007,0 321.007,0 321.007,-36"/>
<text text-anchor="middle" x="294.007" y="-15" font-family="Helvetica,sans-Serif" font-size="10.00" fill="#000000">Login</text>
</g>
<!-- A3&#45;&gt;A6 -->
<g id="edge5" class="edge">
<title>A3&#45;&gt;A6</title>
<path fill="none" stroke="#000000" d="M285.9925,-247.7484C287.852,-194.4447 291.8296,-80.4188 293.3748,-36.122"/>
<polygon fill="#000000" stroke="#000000" points="285.6399,-257.8579 281.4913,-247.7071 285.8142,-252.861 285.9886,-247.864 285.9886,-247.864 285.9886,-247.864 285.8142,-252.861 290.4858,-248.0209 285.6399,-257.8579 285.6399,-257.8579"/>
</g>
<!-- A3&#45;&gt;A9 -->
<g id="edge11" class="edge">
<title>A3&#45;&gt;A9</title>
<path fill="none" stroke="#000000" d="M260.1407,-250.5417C246.8587,-236.9434 230.8176,-220.5203 218.7956,-208.2121"/>
<polygon fill="#000000" stroke="#000000" points="267.1928,-257.7616 256.9861,-253.7522 263.699,-254.1847 260.2053,-250.6078 260.2053,-250.6078 260.2053,-250.6078 263.699,-254.1847 263.4245,-247.4635 267.1928,-257.7616 267.1928,-257.7616"/>
</g>
<!-- A7&#45;&gt;A9 -->
<g id="edge12" class="edge">
<title>A7&#45;&gt;A9</title>
<path fill="none" stroke="#000000" stroke-dasharray="5,2" d="M161.6107,-257.7616C168.5049,-245.9036 177.6149,-230.2345 185.3378,-216.951"/>
<polygon fill="#000000" stroke="#000000" points="190.4186,-208.2121 189.2826,-219.119 187.9054,-212.5346 185.3923,-216.8572 185.3923,-216.8572 185.3923,-216.8572 187.9054,-212.5346 181.502,-214.5954 190.4186,-208.2121 190.4186,-208.2121"/>
</g>
<!-- A8&#45;&gt;A4 -->
<g id="edge9" class="edge">
<title>A8&#45;&gt;A4</title>
<path fill="none" stroke="#000000" stroke-dasharray="5,2" d="M201.9871,-75.4762C203.7931,-62.5329 205.8756,-47.6086 207.4658,-36.2121"/>
<polygon fill="#000000" stroke="#000000" points="200.5519,-85.7616 197.4771,-75.2356 201.2429,-80.8096 201.9339,-75.8576 201.9339,-75.8576 201.9339,-75.8576 201.2429,-80.8096 206.3908,-76.4795 200.5519,-85.7616 200.5519,-85.7616"/>
</g>
<!-- A8&#45;&gt;A6 -->
<g id="edge8" class="edge">
<title>A8&#45;&gt;A6</title>
<path fill="none" stroke="#000000" stroke-dasharray="5,2" d="M226.0047,-78.9187C241.2652,-65.2479 259.8106,-48.6343 273.6772,-36.2121"/>
<polygon fill="#000000" stroke="#000000" points="218.3661,-85.7616 222.8119,-75.7373 222.0903,-82.4254 225.8145,-79.0891 225.8145,-79.0891 225.8145,-79.0891 222.0903,-82.4254 228.8171,-82.4409 218.3661,-85.7616 218.3661,-85.7616"/>
</g>
<!-- A9&#45;&gt;A8 -->
<g id="edge13" class="edge">
<title>A9&#45;&gt;A8</title>
<path fill="none" stroke="#000000" stroke-dasharray="5,2" d="M200.3708,-171.7616C199.973,-160.3597 199.4524,-145.4342 199.001,-132.494"/>
<polygon fill="#000000" stroke="#000000" points="198.6423,-122.2121 203.4883,-132.0491 198.8167,-127.2091 198.991,-132.206 198.991,-132.206 198.991,-132.206 198.8167,-127.2091 194.4938,-132.3629 198.6423,-122.2121 198.6423,-122.2121"/>
</g>
</g>
</svg>
