<svg id="Capa_1" data-name="Capa 1" xmlns="http://www.w3.org/2000/svg" viewBox="0 0 389.22 389.22"><defs><style>.cls-1{fill:none;stroke:#000;stroke-miterlimit:10;stroke-width:20.71px;}</style></defs><title>logo</title><rect class="cls-1" x="10.36" y="10.36" width="368.5" height="368.5"/><path d="M168.63,305.21H133.49c.64,8.79,7.35,14.62,16.53,14.62a16.56,16.56,0,0,0,12.86-5.51l3.19,3.67c-3.75,4.47-9.58,6.87-16.21,6.87-13.1,0-22-8.95-22-21.4s8.71-21.32,20.53-21.32,20.37,8.71,20.37,21.32C168.71,303.93,168.63,304.57,168.63,305.21ZM133.49,301h29.79c-.72-8.23-6.71-14-14.93-14S134.21,292.75,133.49,301Z" transform="translate(-80.89 -88.23)"/><path d="M178,300.33h20.92v5H178Z" transform="translate(-80.89 -88.23)"/><path d="M206.23,303c0-12.94,10-22.12,24-22.12,9,0,16.13,3.91,19.25,10.94L239.78,297c-2.32-4.07-5.75-5.91-9.66-5.91-6.31,0-11.26,4.39-11.26,11.9s5,11.9,11.26,11.9a10.57,10.57,0,0,0,9.66-5.91l9.66,5.27c-3.12,6.87-10.22,10.86-19.25,10.86C216.22,325.09,206.23,315.91,206.23,303Z" transform="translate(-80.89 -88.23)"/><path d="M252.87,303c0-12.94,10-22.12,23.64-22.12S300.07,290,300.07,303s-9.9,22.12-23.56,22.12S252.87,315.91,252.87,303Zm34.58,0c0-7.43-4.71-11.9-10.94-11.9s-11,4.47-11,11.9,4.79,11.9,11,11.9S287.45,310.4,287.45,303Z" transform="translate(-80.89 -88.23)"/><path d="M173.82,395.68v24.6H161.36V397.6c0-6.95-3.19-10.14-8.71-10.14-6,0-10.3,3.67-10.3,11.58v21.24H129.89V361h12.46v20.76c3.35-3.35,8.15-5.11,13.66-5.11C166.15,376.68,173.82,382.59,173.82,395.68Z" transform="translate(-80.89 -88.23)"/><path d="M223.09,395.76v24.52H211.43v-5.35c-2.32,3.91-6.79,6-13.1,6-10.06,0-16.05-5.59-16.05-13,0-7.59,5.35-12.86,18.45-12.86h9.9c0-5.35-3.19-8.47-9.9-8.47a20.66,20.66,0,0,0-12.38,4l-4.47-8.71c4.71-3.35,11.66-5.19,18.53-5.19C215.5,376.68,223.09,382.75,223.09,395.76ZM210.63,406.7v-4.39h-8.54c-5.83,0-7.67,2.16-7.67,5,0,3.12,2.63,5.19,7,5.19C205.6,412.53,209.19,410.62,210.63,406.7Z" transform="translate(-80.89 -88.23)"/><path d="M281.14,398.8c0,13.5-9.34,22.12-21.4,22.12-5.75,0-10.38-1.84-13.5-5.59v5h-11.9V361H246.8v20.84c3.19-3.51,7.59-5.19,12.94-5.19C271.8,376.68,281.14,385.3,281.14,398.8Zm-12.62,0c0-7.43-4.71-11.9-10.94-11.9s-10.94,4.47-10.94,11.9,4.71,11.9,10.94,11.9S268.53,406.22,268.53,398.8Z" transform="translate(-80.89 -88.23)"/><path d="M287.93,364.38c0-3.91,3.12-6.95,7.75-6.95s7.75,2.88,7.75,6.71c0,4.15-3.11,7.19-7.75,7.19S287.93,368.29,287.93,364.38Zm1.52,12.94H301.9v43H289.44Z" transform="translate(-80.89 -88.23)"/><path d="M341.19,418.21c-2.56,1.84-6.31,2.71-10.14,2.71-10.14,0-16.05-5.19-16.05-15.41V387.86h-6.63v-9.58H315V367.81h12.46v10.46h10.7v9.58h-10.7v17.49c0,3.67,2,5.67,5.35,5.67a8.4,8.4,0,0,0,5-1.6Z" transform="translate(-80.89 -88.23)"/><path d="M386.23,395.76v24.52H374.57v-5.35c-2.32,3.91-6.79,6-13.1,6-10.06,0-16.05-5.59-16.05-13,0-7.59,5.35-12.86,18.45-12.86h9.9c0-5.35-3.19-8.47-9.9-8.47a20.66,20.66,0,0,0-12.38,4L347,381.87c4.71-3.35,11.66-5.19,18.53-5.19C378.65,376.68,386.23,382.75,386.23,395.76ZM373.77,406.7v-4.39h-8.54c-5.83,0-7.67,2.16-7.67,5,0,3.12,2.63,5.19,7,5.19C368.74,412.53,372.34,410.62,373.77,406.7Z" transform="translate(-80.89 -88.23)"/><path d="M425.2,418.21c-2.56,1.84-6.31,2.71-10.14,2.71-10.14,0-16.05-5.19-16.05-15.41V387.86h-6.63v-9.58H399V367.81h12.46v10.46h10.7v9.58h-10.7v17.49c0,3.67,2,5.67,5.35,5.67a8.4,8.4,0,0,0,5-1.6Z" transform="translate(-80.89 -88.23)"/></svg>